<svg width="64" height="64" viewBox="0 0 64 64" fill="none" xmlns="http://www.w3.org/2000/svg">
<path d="M32 3C35.8083 3 39.5794 3.75011 43.0978 5.20749C46.6163 6.66488 49.8132 8.80101 52.5061 11.4939C55.199 14.1868 57.3351 17.3837 58.7925 20.9022C60.2499 24.4206 61 28.1917 61 32C61 35.8083 60.2499 39.5794 58.7925 43.0978C57.3351 46.6163 55.199 49.8132 52.5061 52.5061C49.8132 55.199 46.6163 57.3351 43.0978 58.7925C39.5794 60.2499 35.8083 61 32 61C28.1917 61 24.4206 60.2499 20.9022 58.7925C17.3837 57.3351 14.1868 55.199 11.4939 52.5061C8.801 49.8132 6.66487 46.6163 5.20749 43.0978C3.7501 39.5794 3 35.8083 3 32C3 28.1917 3.75011 24.4206 5.2075 20.9022C6.66489 17.3837 8.80101 14.1868 11.4939 11.4939C14.1868 8.80099 17.3838 6.66487 20.9022 5.20749C24.4206 3.7501 28.1917 3 32 3L32 3Z" stroke="#9E77ED" stroke-width="6" stroke-linecap="round" stroke-linejoin="round"/>
<path d="M32 3C38.1242 3 44.0912 4.93879 49.0458 8.53851C54.0004 12.1382 57.6882 17.214 59.5806 23.0385C61.4731 28.863 61.4731 35.137 59.5806 40.9615C57.6882 46.786 54.0004 51.8618 49.0458 55.4615C44.0912 59.0612 38.1242 61 32 61C25.8758 61 19.9088 59.0612 14.9542 55.4615C9.99964 51.8618 6.31184 46.7859 4.41936 40.9615C2.52688 35.137 2.52688 28.863 4.41936 23.0385" stroke="#F4EBFF" stroke-width="6" stroke-linecap="round" stroke-linejoin="round"/>
<path d="M21.9304 37.1392C21.1913 37.1392 20.535 37.0149 19.9616 36.7663C19.3916 36.5178 18.9441 36.178 18.6193 35.7472C18.2978 35.313 18.1387 34.8208 18.142 34.2706C18.1387 33.843 18.2315 33.4503 18.4205 33.0923C18.6094 32.7344 18.8646 32.4361 19.1861 32.1974C19.5109 31.9555 19.8722 31.8014 20.2699 31.7351V31.6655C19.7462 31.5495 19.322 31.2827 18.9972 30.8651C18.6757 30.4441 18.5166 29.9586 18.5199 29.4084C18.5166 28.8847 18.6624 28.4174 18.9574 28.0064C19.2524 27.5954 19.6567 27.2723 20.1705 27.0369C20.6842 26.7983 21.2708 26.679 21.9304 26.679C22.5833 26.679 23.165 26.7983 23.6754 27.0369C24.1892 27.2723 24.5935 27.5954 24.8885 28.0064C25.1868 28.4174 25.3359 28.8847 25.3359 29.4084C25.3359 29.9586 25.1719 30.4441 24.8438 30.8651C24.5189 31.2827 24.0997 31.5495 23.5859 31.6655V31.7351C23.9837 31.8014 24.3416 31.9555 24.6598 32.1974C24.9813 32.4361 25.2365 32.7344 25.4254 33.0923C25.6177 33.4503 25.7138 33.843 25.7138 34.2706C25.7138 34.8208 25.5514 35.313 25.2266 35.7472C24.9018 36.178 24.4543 36.5178 23.8842 36.7663C23.3175 37.0149 22.6662 37.1392 21.9304 37.1392ZM21.9304 35.7173C22.3116 35.7173 22.643 35.6527 22.9247 35.5234C23.2064 35.3909 23.4252 35.2053 23.581 34.9666C23.7367 34.728 23.8163 34.4529 23.8196 34.1413C23.8163 33.8165 23.7318 33.5298 23.5661 33.2812C23.4036 33.0294 23.1799 32.8321 22.8949 32.6896C22.6132 32.5471 22.2917 32.4759 21.9304 32.4759C21.5658 32.4759 21.241 32.5471 20.956 32.6896C20.6709 32.8321 20.4455 33.0294 20.2798 33.2812C20.1174 33.5298 20.0379 33.8165 20.0412 34.1413C20.0379 34.4529 20.1141 34.728 20.2699 34.9666C20.4257 35.2019 20.6444 35.3859 20.9261 35.5185C21.2112 35.651 21.5459 35.7173 21.9304 35.7173ZM21.9304 31.0788C22.242 31.0788 22.517 31.0159 22.7557 30.8899C22.9976 30.764 23.1882 30.5883 23.3274 30.3629C23.4666 30.1375 23.5379 29.8774 23.5412 29.5824C23.5379 29.2907 23.4683 29.0355 23.3324 28.8168C23.1965 28.5947 23.0076 28.424 22.7656 28.3047C22.5237 28.1821 22.2453 28.1207 21.9304 28.1207C21.6089 28.1207 21.3255 28.1821 21.0803 28.3047C20.8383 28.424 20.6494 28.5947 20.5135 28.8168C20.3809 29.0355 20.3163 29.2907 20.3196 29.5824C20.3163 29.8774 20.3826 30.1375 20.5185 30.3629C20.6577 30.585 20.8482 30.7607 21.0902 30.8899C21.3355 31.0159 21.6155 31.0788 21.9304 31.0788ZM31.1117 37.1939C30.293 37.1939 29.5904 36.9867 29.0037 36.5724C28.4204 36.1548 27.9713 35.5533 27.6564 34.7678C27.3449 33.9789 27.1891 33.0294 27.1891 31.919C27.1924 30.8087 27.3498 29.8641 27.6614 29.0852C27.9763 28.303 28.4254 27.7064 29.0087 27.2955C29.5953 26.8845 30.2963 26.679 31.1117 26.679C31.927 26.679 32.628 26.8845 33.2147 27.2955C33.8013 27.7064 34.2504 28.303 34.562 29.0852C34.8768 29.8674 35.0343 30.812 35.0343 31.919C35.0343 33.0327 34.8768 33.9839 34.562 34.7727C34.2504 35.5582 33.8013 36.1581 33.2147 36.5724C32.6313 36.9867 31.9303 37.1939 31.1117 37.1939ZM31.1117 35.6378C31.748 35.6378 32.2502 35.3246 32.6181 34.6982C32.9893 34.0684 33.1749 33.142 33.1749 31.919C33.1749 31.1103 33.0904 30.4309 32.9213 29.8807C32.7523 29.3305 32.5137 28.9162 32.2054 28.6378C31.8972 28.3561 31.5326 28.2152 31.1117 28.2152C30.4786 28.2152 29.9782 28.5301 29.6103 29.1598C29.2424 29.7862 29.0568 30.706 29.0534 31.919C29.0501 32.7311 29.1313 33.4138 29.2971 33.9673C29.4661 34.5208 29.7047 34.9384 30.013 35.2202C30.3212 35.4986 30.6874 35.6378 31.1117 35.6378ZM42.13 35.0909V34.554C42.13 34.1596 42.2128 33.7966 42.3786 33.4652C42.5476 33.1338 42.7929 32.867 43.1143 32.6648C43.4358 32.4626 43.8253 32.3615 44.2827 32.3615C44.7533 32.3615 45.1477 32.4626 45.4659 32.6648C45.7841 32.8636 46.0244 33.1288 46.1868 33.4602C46.3525 33.7917 46.4354 34.1562 46.4354 34.554V35.0909C46.4354 35.4853 46.3525 35.8482 46.1868 36.1797C46.0211 36.5111 45.7775 36.7779 45.456 36.9801C45.1378 37.1823 44.7467 37.2834 44.2827 37.2834C43.8187 37.2834 43.4259 37.1823 43.1044 36.9801C42.7829 36.7779 42.5393 36.5111 42.3736 36.1797C42.2112 35.8482 42.13 35.4853 42.13 35.0909ZM43.4276 34.554V35.0909C43.4276 35.3527 43.4905 35.593 43.6165 35.8118C43.7424 36.0305 43.9645 36.1399 44.2827 36.1399C44.6042 36.1399 44.8246 36.0322 44.9439 35.8168C45.0665 35.598 45.1278 35.3561 45.1278 35.0909V34.554C45.1278 34.2888 45.0698 34.0469 44.9538 33.8281C44.8378 33.6061 44.6141 33.495 44.2827 33.495C43.9711 33.495 43.7507 33.6061 43.6214 33.8281C43.4922 34.0469 43.4276 34.2888 43.4276 34.554ZM36.9545 29.2642V28.7273C36.9545 28.3295 37.0391 27.965 37.2081 27.6335C37.3771 27.3021 37.6224 27.0369 37.9439 26.8381C38.2654 26.6359 38.6548 26.5348 39.1122 26.5348C39.5795 26.5348 39.9723 26.6359 40.2905 26.8381C40.612 27.0369 40.8539 27.3021 41.0163 27.6335C41.1787 27.965 41.2599 28.3295 41.2599 28.7273V29.2642C41.2599 29.6619 41.1771 30.0265 41.0114 30.358C40.849 30.6861 40.607 30.9496 40.2855 31.1484C39.964 31.3473 39.5729 31.4467 39.1122 31.4467C38.6449 31.4467 38.2505 31.3473 37.929 31.1484C37.6108 30.9496 37.3688 30.6844 37.2031 30.353C37.0374 30.0215 36.9545 29.6586 36.9545 29.2642ZM38.2621 28.7273V29.2642C38.2621 29.5294 38.3234 29.7713 38.446 29.9901C38.572 30.2055 38.794 30.3132 39.1122 30.3132C39.4304 30.3132 39.6491 30.2055 39.7685 29.9901C39.8911 29.7713 39.9524 29.5294 39.9524 29.2642V28.7273C39.9524 28.4621 39.8944 28.2202 39.7784 28.0014C39.6624 27.7794 39.4403 27.6683 39.1122 27.6683C38.7973 27.6683 38.5769 27.7794 38.451 28.0014C38.325 28.2235 38.2621 28.4654 38.2621 28.7273ZM37.5213 37L44.5213 26.8182H45.7642L38.7642 37H37.5213Z" fill="white"/>
</svg>
